<?xml version="1.0" encoding="UTF-8" standalone="no"?>
<svg
   height="24px"
   viewBox="0 -960 960 960"
   width="24px"
   fill="#5f6368"
   version="1.1"
   id="svg1"
   sodipodi:docname="library_add_check_24dp_FILL0_wght400_GRAD0_opsz24.svg"
   inkscape:version="1.3.2 (091e20e, 2023-11-25, custom)"
   xmlns:inkscape="http://www.inkscape.org/namespaces/inkscape"
   xmlns:sodipodi="http://sodipodi.sourceforge.net/DTD/sodipodi-0.dtd"
   xmlns="http://www.w3.org/2000/svg"
   xmlns:svg="http://www.w3.org/2000/svg">
  <defs
     id="defs1" />
  <sodipodi:namedview
     id="namedview1"
     pagecolor="#ffffff"
     bordercolor="#000000"
     borderopacity="0.25"
     inkscape:showpageshadow="2"
     inkscape:pageopacity="0.0"
     inkscape:pagecheckerboard="0"
     inkscape:deskcolor="#d1d1d1"
     inkscape:zoom="41.754655"
     inkscape:cx="9.9150621"
     inkscape:cy="10.406025"
     inkscape:window-width="2560"
     inkscape:window-height="1377"
     inkscape:window-x="1912"
     inkscape:window-y="-8"
     inkscape:window-maximized="1"
     inkscape:current-layer="svg1" />
  <path
     d="m 320,-240 c -22,0 -40.83333,-7.83333 -56.5,-23.5 C 247.83333,-279.16667 240,-298 240,-320 v -480 c 0,-22 7.83333,-40.83333 23.5,-56.5 15.66667,-15.66667 34.5,-23.5 56.5,-23.5 h 480 c 22,0 40.83333,7.83333 56.5,23.5 15.66667,15.66667 23.5,34.5 23.5,56.5 v 480 c 0,22 -7.83333,40.83333 -23.5,56.5 -15.66667,15.66667 -34.5,23.5 -56.5,23.5 z m 0,-80 H 800 V -800 H 320 Z M 160,-80 c -22,0 -40.83333,-7.833333 -56.5,-23.5 C 87.833333,-119.16667 80,-138 80,-160 v -560 h 80 v 560 h 560 v 80 z m 160,-720 v 480 z"
     id="path1"
     sodipodi:nodetypes="ssssssssssssscccccssscccccsccc" />
  <rect
     style="fill:#5f6368;fill-opacity:1;stroke-width:48.0657"
     id="rect1"
     width="80"
     height="480"
     x="-40"
     y="-1031.9596"
     ry="0"
     transform="rotate(45)" />
  <rect
     style="fill:#5f6368;fill-opacity:1;stroke-width:48.0657"
     id="rect1-5"
     width="80"
     height="480"
     x="-831.95959"
     y="-242.84274"
     ry="0"
     transform="matrix(-0.70710678,0.70710678,0.70710678,0.70710678,0,0)" />
</svg>
