<?xml version="1.0" encoding="UTF-8" standalone="no"?>
<!-- Created with Inkscape (http://www.inkscape.org/) -->

<svg
   width="200mm"
   height="200mm"
   viewBox="0 0 200 200"
   version="1.1"
   id="svg1"
   inkscape:version="1.3.2 (091e20e, 2023-11-25, custom)"
   sodipodi:docname="Sun.svg"
   xmlns:inkscape="http://www.inkscape.org/namespaces/inkscape"
   xmlns:sodipodi="http://sodipodi.sourceforge.net/DTD/sodipodi-0.dtd"
   xmlns="http://www.w3.org/2000/svg"
   xmlns:svg="http://www.w3.org/2000/svg">
  <sodipodi:namedview
     id="namedview1"
     pagecolor="#ffffff"
     bordercolor="#000000"
     borderopacity="0.25"
     inkscape:showpageshadow="2"
     inkscape:pageopacity="0.0"
     inkscape:pagecheckerboard="0"
     inkscape:deskcolor="#d1d1d1"
     inkscape:document-units="mm"
     inkscape:zoom="1.4878904"
     inkscape:cx="389.14157"
     inkscape:cy="376.70785"
     inkscape:window-width="2560"
     inkscape:window-height="1377"
     inkscape:window-x="1912"
     inkscape:window-y="-8"
     inkscape:window-maximized="1"
     inkscape:current-layer="layer1" />
  <defs
     id="defs1" />
  <g
     inkscape:label="Layer 1"
     inkscape:groupmode="layer"
     id="layer1">
    <ellipse
       style="fill:#ddf9ff;stroke-width:0.309999;fill-opacity:1"
       id="path2"
       cx="100.47083"
       cy="100.20409"
       rx="100.11517"
       ry="99.848442" />
    <path
       style="opacity:1;fill:#ffdf4b;fill-opacity:1;stroke-width:6.26499"
       d="m 63.305515,10.31382 c 0,0 18.138097,24.361953 30.230161,24.006305 12.092064,-0.35565 29.518864,-28.6297416 29.518864,-28.6297416 0,0 3.02302,32.5418786 10.136,37.5209666 7.11298,4.979085 41.07745,-5.690386 41.07745,-5.690386 0,0 -17.24897,25.428903 -13.87031,35.920547 3.37867,10.491645 36.80967,19.916341 36.80967,19.916341 0,0 -27.74062,9.069048 -32.36406,20.805468 -4.62343,11.73641 17.60463,37.52096 17.60463,37.52096 0,0 -30.23016,-10.49164 -38.94357,-2.13389 -8.71339,8.35775 -6.5795,40.36616 -6.5795,40.36616 0,0 -16.35985,-24.00631 -31.29711,-23.82848 -14.937255,0.17782 -28.629739,28.45191 -28.629739,28.45191 0,0 -1.422596,-30.23016 -11.025119,-37.34314 -9.602522,-7.11298 -40.010508,5.51256 -40.010508,5.51256 0,0 17.071149,-25.78455 13.692484,-36.98749 -3.378663,-11.20294 -36.2761929,-18.49375 -36.2761929,-18.49375 0,0 30.4079859,-10.491642 32.5418799,-21.694584 2.133893,-11.202943 -18.493746,-36.631843 -18.493746,-36.631843 0,0 30.407986,11.025116 38.765737,1.956067 8.357751,-9.069046 7.112979,-40.54398 7.112979,-40.54398 z"
       id="path4" />
    <path
       style="fill:#fff590;stroke-width:6.26499;fill-opacity:1"
       id="path1"
       sodipodi:type="arc"
       sodipodi:cx="100.11518"
       sodipodi:cy="100.11518"
       sodipodi:rx="61.882915"
       sodipodi:ry="61.882915"
       sodipodi:start="3.215485"
       sodipodi:end="3.2140168"
       sodipodi:open="true"
       sodipodi:arc-type="arc"
       d="M 38.401131,95.546667 A 61.882915,61.882915 0 0 1 104.66104,38.399459 61.882915,61.882915 0 0 1 161.83257,104.63839 61.882915,61.882915 0 0 1 95.614626,161.83422 61.882915,61.882915 0 0 1 38.39449,95.637281" />
  </g>
</svg>
